<svg width="105" height="106" viewBox="0 0 105 106" fill="none" xmlns="http://www.w3.org/2000/svg">
<path d="M91.3753 24.3828C93.3849 23.2145 95.1581 23.0684 96.6949 23.9447C98.2316 24.821 99 26.4275 99 28.7642V41.032C99 42.5509 98.6454 44.1866 97.9361 45.9392C97.2268 47.6917 96.2811 49.3274 95.099 50.8463C93.9759 52.3067 92.7347 53.4167 91.3753 54.1761C93.3849 53.0078 95.1581 52.8617 96.6949 53.738C98.2316 54.6143 99 56.2208 99 58.5575V76.083C99 77.6603 98.6454 79.3252 97.9361 81.0777C97.2268 82.7719 96.2811 84.3784 95.099 85.8972C93.9759 87.3577 92.7347 88.4676 91.3753 89.2271L79.0515 96.2373C77.0419 97.4056 75.2687 97.5517 73.732 96.6754C72.1952 95.7991 71.4268 94.1926 71.4268 91.8559V100.619L63.7134 105V40.1558L91.3753 24.3828ZM91.3753 54.1761V33.1456L71.4268 44.5371V65.5677L91.3753 54.1761ZM91.3753 62.9389L71.4268 74.3304V91.8559L91.3753 80.4643V62.9389ZM71.4268 91.8559C71.4268 94.1926 72.1952 95.7991 73.732 96.6754L66.0186 92.294C64.4818 91.4178 63.7134 89.8113 63.7134 87.4745L71.4268 91.8559ZM96.6949 53.738C95.1581 52.8617 93.3849 53.0078 91.3753 54.1761L83.6619 49.7948C85.6715 48.6264 87.4742 48.4803 89.0701 49.3566L96.6949 53.738ZM91.3753 62.9389V80.4643L83.6619 76.083V58.5575L91.3753 62.9389ZM91.3753 80.4643L71.4268 91.8559L63.7134 87.4745L83.6619 76.083L91.3753 80.4643ZM91.3753 33.1456V54.1761L83.6619 49.7948V28.7642L91.3753 33.1456ZM91.3753 54.1761L71.4268 65.5677L63.7134 61.1863L83.6619 49.7948L91.3753 54.1761ZM96.6949 23.9447C95.1581 23.0684 93.3849 23.2145 91.3753 24.3828L63.7134 40.1558L56 35.7744L83.6619 20.0015C85.6715 18.8331 87.4742 18.687 89.0701 19.5633L96.6949 23.9447ZM63.7134 40.1558V105L56 100.619V35.7744L63.7134 40.1558Z" fill="#7782EE"/>
<path d="M12.6604 72.9715C12.6604 74.5568 13.0126 76.2009 13.717 77.9037C14.4214 79.6652 15.3606 81.28 16.5346 82.7479C17.7086 84.2746 18.9707 85.4196 20.3208 86.1829L47 101.596V92.7886L20.3208 77.3753V57.9985L47 73.4118V64.6042L20.3208 49.1909V29.8142L47 45.2275V36.4199L20.3208 21.0066C18.2662 19.8322 16.4759 19.6854 14.9497 20.5662C13.4235 21.447 12.6604 23.0617 12.6604 25.4104V72.9715ZM47 45.2275L20.3208 29.8142L12.6604 34.218L39.3396 49.6313L47 45.2275ZM47 73.4118L20.3208 57.9985L12.6604 62.4023L39.3396 77.8157L47 73.4118ZM47 101.596L20.3208 86.1829C18.9707 85.4196 17.7086 84.2746 16.5346 82.7479C15.3606 81.28 14.4214 79.6652 13.717 77.9037C13.0126 76.2009 12.6604 74.5568 12.6604 72.9715V25.4104C12.6604 23.0617 13.4235 21.447 14.9497 20.5662L7.28931 24.97C5.7631 25.8508 5 27.4655 5 29.8142V77.3753C5 78.9606 5.3522 80.6047 6.0566 82.3075C6.76101 84.0691 7.70021 85.6838 8.87421 87.1517C10.0482 88.6784 11.3103 89.8234 12.6604 90.5867L39.3396 106L47 101.596Z" fill="#E5E8FD"/>
<path d="M50.0745 1.29829C50.9632 0.800608 52.0437 0.787862 52.944 1.26445L72.1693 11.4426C74.2616 12.5503 74.3066 15.5316 72.2485 16.7018L52.9716 27.6632C52.0582 28.1826 50.9397 28.1862 50.0229 27.6728L31.1741 17.1175C29.1286 15.972 29.1286 13.028 31.1741 11.8825L50.0745 1.29829Z" fill="#FFF7C2"/>
</svg>
