<svg width="100" height="100" viewBox="0 0 100 100" fill="none" xmlns="http://www.w3.org/2000/svg">
<path d="M89.3753 12.3828C91.3849 11.2145 93.1581 11.0684 94.6949 11.9447C96.2316 12.821 97 14.4275 97 16.7642V29.032C97 30.5509 96.6454 32.1866 95.9361 33.9392C95.2268 35.6917 94.2811 37.3274 93.099 38.8463C91.9759 40.3067 90.7347 41.4167 89.3753 42.1761C91.3849 41.0078 93.1581 40.8617 94.6949 41.738C96.2316 42.6143 97 44.2208 97 46.5575V64.083C97 65.6603 96.6454 67.3252 95.9361 69.0777C95.2268 70.7719 94.2811 72.3784 93.099 73.8972C91.9759 75.3577 90.7347 76.4676 89.3753 77.2271L77.0515 84.2373C75.0419 85.4056 73.2687 85.5517 71.732 84.6754C70.1952 83.7991 69.4268 82.1926 69.4268 79.8559V88.6186L61.7134 93V28.1558L89.3753 12.3828ZM89.3753 42.1761V21.1456L69.4268 32.5371V53.5677L89.3753 42.1761ZM89.3753 50.9389L69.4268 62.3304V79.8559L89.3753 68.4643V50.9389ZM69.4268 79.8559C69.4268 82.1926 70.1952 83.7991 71.732 84.6754L64.0186 80.294C62.4818 79.4178 61.7134 77.8113 61.7134 75.4745L69.4268 79.8559ZM94.6949 41.738C93.1581 40.8617 91.3849 41.0078 89.3753 42.1761L81.6619 37.7948C83.6715 36.6264 85.4742 36.4803 87.0701 37.3566L94.6949 41.738ZM89.3753 50.9389V68.4643L81.6619 64.083V46.5575L89.3753 50.9389ZM89.3753 68.4643L69.4268 79.8559L61.7134 75.4745L81.6619 64.083L89.3753 68.4643ZM89.3753 21.1456V42.1761L81.6619 37.7948V16.7642L89.3753 21.1456ZM89.3753 42.1761L69.4268 53.5677L61.7134 49.1863L81.6619 37.7948L89.3753 42.1761ZM94.6949 11.9447C93.1581 11.0684 91.3849 11.2145 89.3753 12.3828L61.7134 28.1558L54 23.7744L81.6619 8.00146C83.6715 6.83309 85.4742 6.68704 87.0701 7.56332L94.6949 11.9447ZM61.7134 28.1558V93L54 88.6186V23.7744L61.7134 28.1558Z" fill="#7782EE"/>
<path d="M10.6604 41.0285C10.6604 39.4432 11.0126 37.7991 11.717 36.0963C12.4214 34.3347 13.3606 32.72 14.5346 31.2521C15.7086 29.7254 16.9706 28.5804 18.3208 27.8171L45 12.4038V21.2114L18.3208 36.6247V56.0015L45 40.5882V49.3958L18.3208 64.8091V84.1858L45 68.7725V77.5801L18.3208 92.9934C16.2662 94.1678 14.4759 94.3146 12.9497 93.4338C11.4235 92.553 10.6604 90.9383 10.6604 88.5896V41.0285ZM45 68.7725L18.3208 84.1858L10.6604 79.782L37.3396 64.3687L45 68.7725ZM45 40.5882L18.3208 56.0015L10.6604 51.5977L37.3396 36.1843L45 40.5882ZM45 12.4038L18.3208 27.8171C16.9706 28.5804 15.7086 29.7254 14.5346 31.2521C13.3606 32.72 12.4214 34.3347 11.717 36.0963C11.0126 37.7991 10.6604 39.4432 10.6604 41.0285V88.5896C10.6604 90.9383 11.4235 92.553 12.9497 93.4338L5.28931 89.03C3.7631 88.1492 3 86.5345 3 84.1858V36.6247C3 35.0394 3.3522 33.3953 4.0566 31.6925C4.76101 29.9309 5.70021 28.3162 6.87421 26.8483C8.04822 25.3216 9.31027 24.1766 10.6604 23.4133L37.3396 8L45 12.4038Z" fill="#E5E8FD"/>
</svg>
